<svg width="780" height="500" enable-background="new 0 0 780 500" version="1.1" viewBox="0 0 780 500" xml:space="preserve" xmlns="http://www.w3.org/2000/svg"><path d="M40,0h700c22.092,0,40,17.909,40,40v420c0,22.092-17.908,40-40,40H40c-22.091,0-40-17.908-40-40V40   C0,17.909,17.909,0,40,0z" fill="#fff"/><path d="m216.4 69.791h142.39c19.87 0 32.287 16.406 27.63 36.47l-66.333 287.48c-4.656 20.063-24.629 36.47-44.498 36.47h-142.39c-19.87 0-32.287-16.406-27.63-36.47l66.331-287.48c4.657-20.168 24.526-36.47 44.395-36.47h0.104z" fill="#D10429"/><path d="m346.34 69.791h163.82c19.868 0 10.865 16.406 6.209 36.47l-66.334 287.48c-4.657 20.063-3.208 36.47-23.077 36.47h-163.81c-19.972 0-32.287-16.406-27.527-36.47l66.334-287.48c4.656-20.168 24.524-36.47 44.498-36.47h-0.104z" fill="#022E64"/><path d="m504.41 69.791h142.4c19.869 0 32.287 16.406 27.629 36.47l-66.332 287.48c-4.658 20.063-24.631 36.47-44.499 36.47h-142.39c-19.973 0-32.287-16.406-27.63-36.47l66.333-287.48c4.656-20.168 24.525-36.47 44.394-36.47h0.104z" fill="#076F74"/><path d="m480.5 340.81h13.453l3.829-13.063h-13.351l-3.931 13.063zm10.762-35.95l-4.657 15.467s5.071-2.613 7.865-3.449c2.794-0.627 6.933-1.15 6.933-1.15l3.208-10.763h-13.451l0.102-0.105zm6.726-22.153l-4.449 14.839s4.967-2.3 7.761-3.029c2.794-0.732 6.933-0.941 6.933-0.941l3.208-10.764h-13.349l-0.104-0.105zm29.701 0l-17.386 57.997h4.657l-3.622 12.018h-4.657l-1.138 3.657h-16.559l1.14-3.657h-33.529l3.311-11.076h3.415l17.594-58.938 3.518-11.913h16.868l-1.76 5.956s4.449-3.239 8.797-4.39c4.243-1.148 28.665-1.566 28.665-1.566l-3.622 11.809h-5.795l0.103 0.103z" fill="#FEFEFE"/><path d="m534.59 270.79h18.006l0.207 6.792c-0.103 1.149 0.828 1.672 3.001 1.672h3.622l-3.311 11.183h-9.729c-8.382 0.627-11.59-3.03-11.383-7.106l-0.311-12.437-0.102-0.104zm2.216 53.2h-17.178l2.896-9.927h19.662l2.794-9.092h-19.351l3.311-11.182h53.812l-3.312 11.182h-18.109l-2.794 9.092h18.109l-3.002 9.927h-19.558l-3.518 4.18h7.968l1.966 12.54c0.207 1.254 0.207 2.09 0.62 2.613 0.415 0.418 2.795 0.627 4.14 0.627h2.38l-3.725 12.227h-6.106c-0.93 0-2.38-0.104-4.346-0.104-1.863-0.21-3.104-1.255-4.346-1.882-1.139-0.522-2.794-1.881-3.208-4.284l-1.863-12.54-8.899 12.331c-2.795 3.866-6.622 6.897-13.143 6.897h-12.418l3.311-10.869h4.761c1.346 0 2.588-0.521 3.52-1.045 0.931-0.418 1.758-0.836 2.586-2.193l13.04-18.498zm-187.9-27.2h45.429l-3.312 10.973h-18.109l-2.793 9.299h18.627l-3.415 11.287h-18.524l-4.553 15.152c-0.517 1.672 4.45 1.881 6.209 1.881l9.313-1.254-3.726 12.54h-20.904c-1.654 0-2.896-0.209-4.76-0.627-1.76-0.418-2.587-1.254-3.311-2.403-0.726-1.254-1.968-2.195-1.14-4.912l6.002-20.063h-10.348l3.415-11.495h10.348l2.794-9.3h-10.347l3.312-10.974-0.207-0.104zm31.387-19.835h18.627l-3.415 11.39h-25.457l-2.794 2.404c-1.242 1.15-1.552 0.732-3.105 1.568-1.447 0.73-4.449 2.193-8.382 2.193h-8.175l3.311-10.972h2.484c2.07 0 3.52-0.21 4.243-0.627 0.828-0.522 1.76-1.672 2.69-3.554l4.656-8.568h18.525l-3.208 6.27v-0.104zm35.107 18.81s5.07-4.701 13.764-6.164c1.966-0.418 14.384-0.211 14.384-0.211l1.863-6.27h-26.182l-3.83 12.75 1e-3 -0.105zm24.629 4.807h-25.975l-1.552 5.329h22.56c2.69-0.313 3.208 0.104 3.415-0.104l1.655-5.225h-0.103zm-33.735-29.678h15.833l-2.276 8.047s4.967-4.075 8.485-5.539c3.519-1.254 11.383-2.508 11.383-2.508l25.664-0.104-8.796 29.469c-1.449 5.016-3.208 8.256-4.243 9.823-0.93 1.463-2.07 2.821-4.346 4.075-2.173 1.15-4.141 1.881-6.002 1.986-1.656 0.104-4.347 0.209-7.865 0.209h-24.732l-6.934 23.303c-0.62 2.299-0.931 3.447-0.517 4.074 0.31 0.523 1.241 1.15 2.38 1.15l10.865-1.045-3.726 12.749h-12.21c-3.933 0-6.727-0.104-8.693-0.21-1.862-0.208-3.83 0-5.175-1.044-1.138-1.045-2.896-2.403-2.794-3.763 0.104-1.254 0.621-3.344 1.45-6.27l22.249-74.402z" fill="#FEFEFE"/><path d="m452.43 317.79l-1.449 7.105c-0.619 2.194-1.138 3.867-2.794 5.33-1.759 1.463-3.725 3.03-8.484 3.03l-8.796 0.418-0.104 7.942c-0.103 2.193 0.519 1.984 0.828 2.402 0.414 0.418 0.724 0.523 1.138 0.732l2.794-0.21 8.384-0.417-3.52 11.704h-9.624c-6.726 0-11.797-0.21-13.35-1.463-1.655-1.046-1.862-2.3-1.862-4.599l0.62-31.141h15.42l-0.207 6.374h3.725c1.242 0 2.175-0.104 2.691-0.418s0.828-0.836 1.035-1.567l1.552-5.016h12.108l-0.105-0.206zm-219.37-156c-0.517 2.508-10.451 48.592-10.451 48.592-2.174 9.3-3.726 15.989-8.9 20.273-3.001 2.508-6.52 3.657-10.555 3.657-6.52 0-10.245-3.239-10.866-9.404l-0.104-2.09s1.966-12.436 1.966-12.54c0 0 10.349-42.009 12.212-47.548 0.103-0.313 0.103-0.522 0.103-0.627-20.18 0.21-23.801 0-24.008-0.313-0.104 0.418-0.621 3.03-0.621 3.03l-10.556 47.34-0.932 3.97-1.758 13.168c0 3.866 0.724 7.105 2.277 9.718 4.863 8.569 18.627 9.823 26.388 9.823 10.038 0 19.455-2.195 25.767-6.061 11.073-6.584 13.97-16.929 16.454-26.02l1.242-4.703s10.659-43.576 12.522-49.219c0.103-0.314 0.103-0.523 0.207-0.627-14.695 0.104-18.938 0-20.387-0.314v-0.105zm59.03 86.623c-7.141-0.105-9.728-0.105-18.11 0.313l-0.311-0.627c0.724-3.24 1.552-6.374 2.173-9.614l1.035-4.389c1.552-6.792 3.001-14.839 3.208-17.242 0.207-1.463 0.62-5.12-3.519-5.12-1.759 0-3.518 0.835-5.38 1.671-1.036 3.658-3.002 13.899-4.037 18.497-2.07 9.823-2.173 10.972-3.104 15.78l-0.621 0.626c-7.347-0.104-9.934-0.104-18.42 0.314l-0.414-0.732c1.449-5.852 2.794-11.704 4.14-17.556 3.518-15.78 4.45-21.84 5.38-29.887l0.725-0.418c8.279-1.149 10.245-1.463 19.248-3.239l0.724 0.836-1.345 5.016c1.552-0.94 3.001-1.881 4.553-2.613 4.243-2.09 8.9-2.717 11.487-2.717 3.932 0 8.279 1.15 10.038 5.748 1.656 4.075 0.62 9.091-1.656 19.019l-1.138 5.016c-2.277 11.077-2.69 13.062-3.933 20.586l-0.827 0.627 0.104 0.105zm29.057 0.027c-4.346 0-7.14-0.104-9.83 0-2.691 0-5.278 0.21-9.314 0.314l-0.207-0.314-0.207-0.418c1.138-4.18 1.656-5.643 2.277-7.106 0.517-1.463 1.034-2.926 2.07-7.21 1.241-5.539 2.069-9.405 2.586-12.854 0.621-3.24 0.932-6.06 1.346-9.3l0.31-0.209 0.31-0.313c4.347-0.627 7.038-1.045 9.832-1.463s5.691-0.94 10.141-1.776l0.207 0.418 0.103 0.418-2.482 10.345c-0.828 3.449-1.656 6.897-2.38 10.346-1.554 7.315-2.277 10.032-2.587 12.017-0.414 1.881-0.519 2.822-1.14 6.584l-0.414 0.313-0.414 0.314-0.207-0.106zm45.942-25.675c-0.31 1.881-1.966 8.883-4.139 11.809-1.553 2.194-3.312 3.553-5.382 3.553-0.62 0-4.14 0-4.242-5.33 0-2.612 0.517-5.33 1.138-8.255 1.863-8.465 4.14-15.466 9.831-15.466 4.45 0 4.76 5.225 2.794 13.689zm18.73 0.836c2.483-11.077 0.518-16.302-1.862-19.437-3.726-4.807-10.348-6.374-17.178-6.374-4.141 0-13.867 0.418-21.525 7.524-5.484 5.12-8.071 12.122-9.52 18.81-1.554 6.792-3.312 19.019 7.864 23.617 3.414 1.463 8.382 1.88 11.59 1.88 8.176 0 16.558-2.298 22.87-8.986 4.863-5.434 7.036-13.585 7.864-17.034h-0.103zm174.43 26.08c-8.693-0.104-11.176-0.104-19.146 0.314l-0.517-0.627c2.173-8.256 4.346-16.616 6.312-24.976 2.483-10.868 3.104-15.466 3.933-21.84l0.62-0.522c8.59-1.254 10.97-1.567 19.973-3.239l0.207 0.731c-1.656 6.897-3.208 13.69-4.864 20.482-3.311 14.317-4.45 21.632-5.69 29.156l-0.828 0.627v-0.106z" fill="#FEFEFE"/><path d="m547.75 224.16c-0.414 1.776-2.07 8.882-4.243 11.808-1.449 2.09-4.967 3.449-6.933 3.449-0.621 0-4.036 0-4.243-5.225 0-2.613 0.517-5.33 1.138-8.256 1.863-8.255 4.141-15.257 9.831-15.257 4.45 0 6.416 5.12 4.45 13.585v-0.104zm17.075 0.836c2.482-11.077-7.658-0.94-9.21-4.598-2.484-5.748-0.933-17.243-10.866-21.109-3.829-1.568-12.832 0.418-20.49 7.524-5.381 5.016-8.072 12.017-9.52 18.705-1.554 6.688-3.312 19.02 7.76 23.304 3.52 1.567 6.727 1.985 9.935 1.776 11.178-0.627 19.662-17.661 25.976-24.349 4.861-5.329 5.69 1.986 6.415-1.253zm-129.94 23.413c-7.14-0.105-9.624-0.105-18.006 0.313l-0.311-0.627c0.725-3.24 1.553-6.374 2.276-9.614l0.931-4.389c1.554-6.792 3.105-14.839 3.208-17.242 0.207-1.463 0.621-5.12-3.415-5.12-1.759 0-3.62 0.835-5.38 1.671-0.932 3.658-3.002 13.899-4.037 18.497-1.966 9.823-2.173 10.972-3.104 15.78l-0.621 0.626c-7.347-0.104-9.934-0.104-18.42 0.314l-0.414-0.732c1.449-5.852 2.794-11.704 4.14-17.556 3.519-15.78 4.347-21.84 5.38-29.887l0.621-0.418c8.28-1.149 10.35-1.463 19.248-3.239l0.726 0.836-1.242 5.016c1.449-0.94 3.001-1.881 4.45-2.613 4.243-2.09 8.899-2.717 11.485-2.717 3.934 0 8.177 1.15 10.038 5.748 1.656 4.075 0.519 9.091-1.759 19.019l-1.138 5.016c-2.38 11.077-2.69 13.062-3.934 20.586l-0.826 0.627 0.104 0.105zm62.001-86.519l-6.002 0.105c-15.523 0.209-21.732 0.104-24.215-0.209-0.207 1.15-0.621 3.135-0.621 3.135s-5.588 25.916-5.588 26.02c0 0-13.246 55.176-13.867 57.788 13.556-0.209 19.041-0.209 21.421 0.105 0.519-2.613 3.622-17.974 3.726-17.974 0 0 2.69-11.286 2.795-11.704 0 0 0.826-1.15 1.654-1.672h1.242c11.694 0 24.836 0 35.186-7.628 7.036-5.225 11.797-13.063 13.97-22.468 0.517-2.299 0.931-5.016 0.931-7.837 0-3.658-0.724-7.21-2.794-10.032-5.279-7.42-15.731-7.524-27.838-7.629zm7.761 27.066c-1.241 5.747-4.967 10.659-9.727 12.958-3.933 1.985-8.693 2.194-13.66 2.194h-3.208l0.207-1.254s5.899-25.916 5.899-25.811l0.206-1.359 0.104-1.045 2.38 0.21s12.211 1.044 12.418 1.044c4.759 1.881 6.83 6.688 5.381 13.063zm127.21 8.666l-0.723-0.836c-8.797 1.776-10.453 2.09-18.525 3.24l-0.619 0.626c0 0.105-0.104 0.21-0.104 0.418v-0.104c-6.002 14.107-5.9 11.077-10.762 22.154 0-0.523 0-0.836-0.105-1.359l-1.242-24.035-0.723-0.836c-9.314 1.777-9.521 2.09-18.007 3.24l-0.621 0.627c-0.104 0.313-0.104 0.627-0.104 0.94l0.104 0.105c1.035 5.538 0.828 4.284 1.863 12.958 0.517 4.284 1.138 8.569 1.655 12.749 0.828 7.106 1.346 10.554 2.381 21.318-5.797 9.613-7.142 13.271-12.729 21.734l0.31 0.836c8.384-0.312 10.246-0.312 16.455-0.312l1.346-1.568c4.656-10.135 40.256-71.79 40.256-71.79l-0.106-0.105zm-302.72 6.922c4.76-3.344 5.38-7.942 1.345-10.345-4.036-2.404-11.176-1.672-15.937 1.672-4.76 3.24-5.277 7.837-1.241 10.345 3.932 2.3 11.072 1.672 15.833-1.672z" fill="#FEFEFE"/><path d="m590.33 270.9l-6.935 12.019c-2.173 4.075-6.312 7.21-12.728 7.21l-11.073-0.209 3.208-10.868h2.173c1.138 0 1.966-0.104 2.587-0.418 0.621-0.209 0.933-0.627 1.449-1.254l4.14-6.583h17.282l-0.103 0.103z" fill="#FEFEFE"/></svg>
