<svg width="328" height="283" viewBox="0 0 328 283" fill="none" xmlns="http://www.w3.org/2000/svg">
<path d="M290.889 87.7771L139.368 0L136.289 1.78805L287.81 89.4026L290.889 87.7771Z" fill="#828282"/>
<path d="M183.285 271.134L31.7628 183.519V186.933L183.285 274.71V271.134Z" fill="#5E5E5E"/>
<path d="M290.889 208.877V87.7771L287.81 89.4026V210.665L290.889 208.877Z" fill="#4D4D4D"/>
<path d="M287.81 210.665L183.285 271.134V274.71L287.81 214.079V210.665Z" fill="#4D4D4D"/>
<path d="M183.285 271.134L31.7628 183.519L136.289 122.888L287.81 210.665L183.285 271.134Z" fill="#828282"/>
<path d="M159.949 225.457L145.526 233.91L96.4229 205.464L110.846 197.011C113.439 195.548 117.49 195.548 120.083 197.011L159.949 220.093C162.379 221.556 162.379 223.994 159.949 225.457Z" fill="#5E5E5E"/>
<path d="M95.4506 205.951L119.597 219.93L112.466 223.994L92.8577 212.616C90.2648 211.153 90.2648 208.715 92.8577 207.252L95.4506 205.951Z" fill="#5E5E5E"/>
<path d="M144.391 234.397L141.96 235.86C139.368 237.323 135.316 237.323 132.723 235.86L113.115 224.482L120.245 220.418L144.391 234.397Z" fill="#5E5E5E"/>
<path d="M138.719 139.956L130.292 135.242L134.506 132.804L142.771 137.68L138.719 139.956Z" fill="#5E5E5E"/>
<path d="M150.225 146.783L141.96 141.906L146.174 139.631L154.439 144.345L150.225 146.783Z" fill="#5E5E5E"/>
<path d="M161.893 153.447L153.628 148.733L157.842 146.295L166.107 151.009L161.893 153.447Z" fill="#5E5E5E"/>
<path d="M173.561 160.275L165.296 155.398L169.348 152.96L177.613 157.836L173.561 160.275Z" fill="#5E5E5E"/>
<path d="M185.229 166.939L176.964 162.225L181.016 159.787L189.281 164.501L185.229 166.939Z" fill="#5E5E5E"/>
<path d="M196.735 173.604L188.47 168.89L192.684 166.451L200.949 171.328L196.735 173.604Z" fill="#5E5E5E"/>
<path d="M208.403 180.431L200.138 175.554L204.352 173.279L212.617 177.993L208.403 180.431Z" fill="#5E5E5E"/>
<path d="M220.071 187.095L211.806 182.381L215.858 179.943L224.123 184.82L220.071 187.095Z" fill="#5E5E5E"/>
<path d="M231.739 193.922L223.474 189.046L227.526 186.77L235.791 191.484L231.739 193.922Z" fill="#5E5E5E"/>
<path d="M243.245 200.587L234.98 195.873L239.194 193.435L247.458 198.311L243.245 200.587Z" fill="#5E5E5E"/>
<path d="M254.913 207.414L246.648 202.538L250.862 200.099L259.126 204.976L254.913 207.414Z" fill="#5E5E5E"/>
<path d="M266.581 214.079L258.316 209.365L262.368 206.927L270.632 211.64L266.581 214.079Z" fill="#5E5E5E"/>
<path d="M254.751 220.906L234.818 209.527L243.083 204.651L263.016 216.192L254.751 220.906Z" fill="#5E5E5E"/>
<path d="M126.727 146.945L118.462 142.069L126.727 137.355L134.992 142.069L126.727 146.945Z" fill="#5E5E5E"/>
<path d="M138.395 153.61L130.13 148.896L138.395 144.02L146.66 148.896L138.395 153.61Z" fill="#5E5E5E"/>
<path d="M150.063 160.437L141.798 155.561L150.063 150.847L158.328 155.561L150.063 160.437Z" fill="#5E5E5E"/>
<path d="M161.569 167.102L153.304 162.388L161.569 157.511L169.834 162.388L161.569 167.102Z" fill="#5E5E5E"/>
<path d="M173.237 173.766L164.972 169.052L173.237 164.176L181.502 169.052L173.237 173.766Z" fill="#5E5E5E"/>
<path d="M184.905 180.593L176.64 175.717L184.905 171.003L193.17 175.717L184.905 180.593Z" fill="#5E5E5E"/>
<path d="M196.573 187.258L188.308 182.544L196.573 177.667L204.838 182.544L196.573 187.258Z" fill="#5E5E5E"/>
<path d="M208.241 194.085L199.814 189.209L208.241 184.495L216.506 189.209L208.241 194.085Z" fill="#5E5E5E"/>
<path d="M219.747 200.75L211.482 196.036L219.747 191.159L228.012 196.036L219.747 200.75Z" fill="#5E5E5E"/>
<path d="M231.415 207.577L223.15 202.7L231.415 197.986L239.68 202.7L231.415 207.577Z" fill="#5E5E5E"/>
<path d="M114.897 153.773L106.632 149.059L114.897 144.182L123.162 149.059L114.897 153.773Z" fill="#5E5E5E"/>
<path d="M126.565 160.437L118.3 155.723L126.565 151.009L134.83 155.723L126.565 160.437Z" fill="#5E5E5E"/>
<path d="M138.071 167.264L129.806 162.388L138.071 157.674L146.336 162.388L138.071 167.264Z" fill="#5E5E5E"/>
<path d="M149.739 173.929L141.474 169.215L149.739 164.338L158.004 169.215L149.739 173.929Z" fill="#5E5E5E"/>
<path d="M161.407 180.756L153.142 175.879L161.407 171.165L169.672 175.879L161.407 180.756Z" fill="#5E5E5E"/>
<path d="M173.075 187.42L164.81 182.707L173.075 177.83L181.34 182.707L173.075 187.42Z" fill="#5E5E5E"/>
<path d="M184.581 194.248L176.316 189.371L184.581 184.657L192.846 189.371L184.581 194.248Z" fill="#5E5E5E"/>
<path d="M196.249 200.912L187.984 196.198L196.249 191.322L204.514 196.198L196.249 200.912Z" fill="#5E5E5E"/>
<path d="M207.917 207.739L199.652 202.863L207.917 198.149L216.182 202.863L207.917 207.739Z" fill="#5E5E5E"/>
<path d="M219.585 214.404L211.32 209.527L219.585 204.813L227.85 209.527L219.585 214.404Z" fill="#5E5E5E"/>
<path d="M231.091 221.068L222.826 216.354L231.091 211.478L239.356 216.354L231.091 221.068Z" fill="#5E5E5E"/>
<path d="M242.759 227.895L234.494 223.019L242.759 218.305L251.024 223.019L242.759 227.895Z" fill="#5E5E5E"/>
<path d="M108.901 164.176L94.6403 155.886L102.905 151.009L117.166 159.299L108.901 164.176Z" fill="#5E5E5E"/>
<path d="M119.759 170.353L111.494 165.639L119.759 160.762L128.024 165.639L119.759 170.353Z" fill="#5E5E5E"/>
<path d="M131.427 177.18L123.162 172.303L131.427 167.589L139.692 172.303L131.427 177.18Z" fill="#5E5E5E"/>
<path d="M143.095 183.844L134.83 179.13L143.095 174.254L151.36 179.13L143.095 183.844Z" fill="#5E5E5E"/>
<path d="M154.601 190.509L146.336 185.795L154.601 181.081L162.866 185.795L154.601 190.509Z" fill="#5E5E5E"/>
<path d="M166.269 197.336L158.004 192.46L166.269 187.746L174.534 192.46L166.269 197.336Z" fill="#5E5E5E"/>
<path d="M177.937 204.001L169.672 199.287L177.937 194.41L186.202 199.287L177.937 204.001Z" fill="#5E5E5E"/>
<path d="M189.605 210.828L181.34 205.951L189.605 201.237L197.87 205.951L189.605 210.828Z" fill="#5E5E5E"/>
<path d="M201.111 217.492L192.846 212.778L201.111 207.902L209.376 212.778L201.111 217.492Z" fill="#5E5E5E"/>
<path d="M212.779 224.319L204.514 219.443L212.779 214.729L221.043 219.443L212.779 224.319Z" fill="#5E5E5E"/>
<path d="M230.929 234.723L215.209 225.62L223.474 220.906L239.194 230.009L230.929 234.723Z" fill="#5E5E5E"/>
<path d="M91.0751 167.589L82.8103 162.713L91.0751 157.999L99.3399 162.713L91.0751 167.589Z" fill="#5E5E5E"/>
<path d="M102.743 174.254L94.4782 169.54L102.743 164.663L111.008 169.54L102.743 174.254Z" fill="#5E5E5E"/>
<path d="M114.411 181.081L106.146 176.204L114.411 171.491L122.676 176.204L114.411 181.081Z" fill="#5E5E5E"/>
<path d="M125.917 187.746L117.652 183.032L125.917 178.155L134.182 183.032L125.917 187.746Z" fill="#5E5E5E"/>
<path d="M160.921 207.902L129.32 189.696L137.585 184.982L169.186 203.188L160.921 207.902Z" fill="#5E5E5E"/>
<path d="M172.427 214.729L164.162 209.852L172.427 205.138L180.692 209.852L172.427 214.729Z" fill="#5E5E5E"/>
<path d="M184.095 221.393L175.83 216.68L184.095 211.803L192.36 216.68L184.095 221.393Z" fill="#5E5E5E"/>
<path d="M195.763 228.221L187.498 223.344L195.763 218.63L204.028 223.344L195.763 228.221Z" fill="#5E5E5E"/>
<path d="M207.431 234.885L199.166 230.171L207.431 225.295L215.696 230.171L207.431 234.885Z" fill="#5E5E5E"/>
<path d="M219.099 241.712L210.672 236.836L219.099 232.122L227.364 236.836L219.099 241.712Z" fill="#5E5E5E"/>
<path d="M287.81 210.665L136.289 122.888V1.78806L287.81 89.4027V210.665Z" fill="#5E5E5E"/>
<path d="M279.221 200.912L144.877 123.213C142.447 121.75 140.502 118.012 140.502 114.761V14.7921C140.502 11.5411 142.447 10.0781 144.877 11.3785L279.221 89.2401C281.652 90.7031 283.597 94.4417 283.597 97.6927V197.661C283.759 200.912 281.652 202.375 279.221 200.912Z" fill="#4D4D4D"/>
<path d="M282.462 98.668V195.06C282.462 197.011 281.814 198.311 280.68 198.799C279.87 199.124 278.897 199.124 277.925 198.474L244.704 179.13L146.174 122.075C143.743 120.612 141.798 116.874 141.798 113.623V17.2303C141.798 13.9793 143.743 12.5164 146.174 13.8168L155.249 19.1809L278.087 90.2154C280.518 91.6783 282.462 95.417 282.462 98.668Z" fill="#E6E6E6"/>
<path d="M252.806 112.322L171.455 65.1826V39.6623L252.806 86.8018V112.322Z" fill="#D9D9D9"/>
<path d="M190.739 73.1476L174.209 63.5571V44.3762L190.739 53.9667V73.1476Z" fill="#61AEFF"/>
<path d="M217.154 72.3349L194.791 59.4934V56.405L217.154 69.2464V72.3349Z" fill="#828282"/>
<path d="M241.138 91.1907L194.791 64.5325V62.907L241.138 89.7277V91.1907Z" fill="#828282"/>
<path d="M241.138 94.6042L194.791 67.7835V66.3205L241.138 92.9787V94.6042Z" fill="#828282"/>
<path d="M232.225 92.6537L194.791 71.0345V69.5715L232.225 91.1907V92.6537Z" fill="#828282"/>
<path d="M235.466 82.9007L220.557 74.2855V71.3596L235.466 79.8122V82.9007Z" fill="#828282"/>
<path d="M196.897 75.5859C196.897 76.2361 196.411 76.5612 195.925 76.2361C195.439 75.911 194.953 75.0982 194.953 74.448C194.953 73.7978 195.439 73.4727 195.925 73.7978C196.411 74.1229 196.897 74.9357 196.897 75.5859Z" fill="#FFBE29"/>
<path d="M200.787 77.8616C200.787 78.5118 200.3 78.8369 199.814 78.5118C199.328 78.1867 198.842 77.3739 198.842 76.7237C198.842 76.0735 199.328 75.7484 199.814 76.0735C200.3 76.3986 200.787 77.2114 200.787 77.8616Z" fill="#FFBE29"/>
<path d="M204.676 80.1373C204.676 80.7875 204.19 81.1126 203.704 80.7875C203.217 80.4624 202.731 79.6497 202.731 78.9994C202.731 78.3492 203.217 78.0241 203.704 78.3492C204.352 78.6744 204.676 79.4871 204.676 80.1373Z" fill="#FFBE29"/>
<path d="M208.727 82.413C208.727 83.0632 208.241 83.3883 207.755 83.0632C207.269 82.7381 206.783 81.9254 206.783 81.2752C206.783 80.625 207.269 80.2999 207.755 80.625C208.241 80.9501 208.727 81.7628 208.727 82.413Z" fill="#FFBE29"/>
<path d="M241.138 101.106C241.138 101.756 240.652 102.082 240.166 101.756C239.68 101.431 239.194 100.619 239.194 99.9684C239.194 99.3182 239.68 98.9931 240.166 99.3182C240.652 99.8059 241.138 100.456 241.138 101.106Z" fill="#FF6666"/>
<path d="M252.806 142.557L171.455 95.417V69.7341L252.806 116.874V142.557Z" fill="#D9D9D9"/>
<path d="M190.739 103.382L174.209 93.7915V74.6106L190.739 84.201V103.382Z" fill="#4FEABE"/>
<path d="M217.154 102.569L194.791 89.5652V86.6393L217.154 99.4808V102.569Z" fill="#828282"/>
<path d="M241.138 121.425L194.791 94.6043V93.1413L241.138 119.962V121.425Z" fill="#828282"/>
<path d="M241.138 124.676L194.791 98.0178V96.3923L241.138 123.213V124.676Z" fill="#828282"/>
<path d="M232.225 122.888L194.791 101.269V99.8058L232.225 121.425V122.888Z" fill="#828282"/>
<path d="M235.466 113.135L220.557 104.52V101.594L235.466 110.047V113.135Z" fill="#828282"/>
<path d="M196.897 105.82C196.897 106.47 196.411 106.796 195.925 106.47C195.439 106.145 194.953 105.333 194.953 104.682C194.953 104.032 195.439 103.707 195.925 104.032C196.411 104.357 196.897 105.17 196.897 105.82Z" fill="#FFBE29"/>
<path d="M200.787 108.096C200.787 108.746 200.3 109.071 199.814 108.746C199.328 108.421 198.842 107.608 198.842 106.958C198.842 106.308 199.328 105.983 199.814 106.308C200.3 106.633 200.787 107.446 200.787 108.096Z" fill="#FFBE29"/>
<path d="M204.676 110.372C204.676 111.022 204.19 111.347 203.704 111.022C203.217 110.697 202.731 109.884 202.731 109.234C202.731 108.584 203.217 108.258 203.704 108.584C204.352 108.909 204.676 109.721 204.676 110.372Z" fill="#FFBE29"/>
<path d="M241.138 131.341C241.138 131.991 240.652 132.316 240.166 131.991C239.68 131.666 239.194 130.853 239.194 130.203C239.194 129.553 239.68 129.227 240.166 129.553C240.652 130.04 241.138 130.69 241.138 131.341Z" fill="#FF6666"/>
<path d="M252.806 172.791L171.455 125.651V99.9684L252.806 147.108V172.791Z" fill="#D9D9D9"/>
<path d="M190.739 133.616L174.209 124.026V104.845L190.739 114.435V133.616Z" fill="#FFBE29"/>
<path d="M217.154 132.804L194.791 119.8V116.874L217.154 129.715V132.804Z" fill="#828282"/>
<path d="M241.138 151.659L194.791 124.839V123.376L241.138 150.196V151.659Z" fill="#828282"/>
<path d="M241.138 154.91L194.791 128.252V126.627L241.138 153.447V154.91Z" fill="#828282"/>
<path d="M241.462 155.235L195.277 128.415V126.952L241.462 153.61V155.235Z" fill="#828282"/>
<path d="M232.225 153.122L194.791 131.503V130.04L232.225 151.659V153.122Z" fill="#828282"/>
<path d="M235.466 143.369L220.557 134.754V131.828L235.466 140.281V143.369Z" fill="#828282"/>
<path d="M196.897 136.055C196.897 136.705 196.411 137.03 195.925 136.705C195.439 136.38 194.953 135.567 194.953 134.917C194.953 134.267 195.439 133.941 195.925 134.267C196.411 134.592 196.897 135.404 196.897 136.055Z" fill="#FFBE29"/>
<g opacity="0.2">
<g opacity="0.2">
<path opacity="0.2" d="M280.68 198.799C279.87 199.124 278.897 199.124 277.925 198.474L244.704 179.13L141.798 75.911V59.3308L280.68 198.799Z" fill="white"/>
</g>
<g opacity="0.2">
<path opacity="0.2" d="M282.462 146.783V184.169L141.798 42.9133V17.2303C141.798 13.9793 143.743 12.5164 146.174 13.8168L155.249 19.1809L282.462 146.783Z" fill="white"/>
</g>
</g>
<path d="M150.063 51.2033L123 35.5985V4.22632L150.063 19.8311V51.2033Z" fill="#E6E6E6"/>
<path d="M147.632 21.2941V46.977L125.269 34.1356V8.29007L147.632 21.2941Z" fill="#61AEFF"/>
<path d="M140.664 26.8208C140.664 29.7467 138.719 34.7858 136.127 33.3228C133.696 31.8599 131.589 24.5451 131.589 21.6192C131.589 18.6933 133.534 17.5555 136.127 19.0184C138.719 20.4814 140.664 23.8949 140.664 26.8208Z" fill="#E6E6E6"/>
<path d="M143.743 44.7014L128.834 36.0862C130.293 33.973 133.047 33.6479 136.289 35.436C139.368 37.224 142.123 40.9627 143.743 44.7014Z" fill="#E6E6E6"/>
<path d="M153.304 49.2527L150.063 51.2033V19.8311L153.304 17.8805V49.2527Z" fill="#D9D9D9"/>
<path d="M123 4.06375L126.241 2.2757L153.304 17.8805L150.063 19.8311L123 4.06375Z" fill="#F0F0F0"/>
<path d="M309.526 184.332L261.882 156.698V128.415L309.526 155.886V184.332Z" fill="#E6E6E6"/>
<path d="M285.704 149.384L265.123 137.355V134.592L285.704 146.62V149.384Z" fill="#828282"/>
<path d="M300.775 158.161L288.945 151.172V148.408L300.775 155.398V158.161Z" fill="#828282"/>
<path d="M307.257 166.289L265.123 141.744V140.281L307.257 164.826V166.289Z" fill="#828282"/>
<path d="M307.257 169.54L265.123 145.157V143.694L307.257 168.077V169.54Z" fill="#828282"/>
<path d="M293.806 165.151L265.123 148.571V147.108L293.806 163.688V165.151Z" fill="#828282"/>
<path d="M282.625 164.988L269.822 157.674C269.174 157.349 268.688 156.373 268.688 155.561C268.688 154.748 269.174 154.423 269.822 154.748L282.625 162.063C283.273 162.388 283.759 163.363 283.759 164.176C283.759 164.988 283.273 165.476 282.625 164.988Z" fill="#828282"/>
<path d="M302.233 176.367L289.431 169.052C288.783 168.727 288.296 167.752 288.296 166.939C288.296 166.126 288.783 165.801 289.431 166.126L302.233 173.441C302.881 173.766 303.368 174.741 303.368 175.554C303.368 176.367 302.881 176.855 302.233 176.367Z" fill="#FFBE29"/>
<path d="M312.767 182.381L309.526 184.332V155.886L312.767 154.098V182.381Z" fill="#D9D9D9"/>
<path d="M312.767 153.935L309.526 155.886L261.882 128.252L265.123 126.464L312.767 153.935Z" fill="#F0F0F0"/>
<path d="M171.941 169.865L164.81 165.639L168.7 143.857L175.83 148.083L171.941 169.865Z" fill="#3F8DE0"/>
<path d="M172.913 149.709L165.783 145.645L167.565 135.242L174.858 139.306L172.913 149.709Z" fill="#3F8DE0"/>
<path d="M174.858 139.306L167.565 135.242L180.043 127.927L187.336 132.153L174.858 139.306Z" fill="#61AEFF"/>
<path d="M187.336 132.153L181.664 164.176L171.941 169.865L175.83 148.083L172.913 149.709L174.858 139.306L187.336 132.153Z" fill="#205C9B"/>
<path d="M203.217 113.948L203.055 114.11L188.632 125.164L188.146 124.514L169.51 99.4808L169.024 98.8306L183.609 87.7771C184.581 86.9644 185.715 86.6393 187.174 86.4767C193.008 86.3142 200.625 92.4911 204.028 100.456C206.621 106.47 206.134 111.672 203.217 113.948Z" fill="#2A77C9"/>
<path d="M196.573 125.001L196.249 125.164L177.451 139.468L176.964 138.655L152.818 106.308L152.17 105.495L170.968 91.1907C172.265 90.2154 173.723 89.5652 175.668 89.5652C183.285 89.2401 193.008 97.3676 197.545 107.608C201.111 115.248 200.462 121.913 196.573 125.001Z" fill="#61AEFF"/>
<path d="M177.613 139.468C177.613 139.468 151.846 169.052 143.905 189.046L93.5059 123.051C93.5059 123.051 128.51 122.888 152.332 105.333C153.628 104.357 155.087 103.707 157.032 103.707C164.648 103.382 174.372 111.51 178.909 121.75C182.15 129.715 181.502 136.542 177.613 139.468Z" fill="#E6E6E6"/>
<path d="M139.854 194.085L139.206 194.573L133.696 198.636L132.561 197.173L83.9447 131.828L82.6482 130.04L88.4822 125.814H88.6443C91.0751 123.863 94.3162 122.725 98.0435 122.563C113.277 121.913 133.047 138.168 142.123 158.974C148.767 174.416 147.47 188.071 139.854 194.085Z" fill="#61AEFF"/>
<path d="M139.854 194.085L139.206 194.573L133.696 198.636L132.561 197.173L83.9447 131.828L82.6482 130.04L88.4822 125.814H88.6443C91.0751 123.863 94.3162 122.725 98.0435 122.563C113.277 121.913 133.047 138.168 142.123 158.974C148.767 174.416 147.47 188.071 139.854 194.085Z" fill="#61AEFF"/>
<path d="M133.695 198.591C144.655 190.508 142.239 168.535 128.297 149.512C114.355 130.489 94.1671 121.62 83.2062 129.702C72.2454 137.784 74.6621 159.758 88.6041 178.781C102.546 197.804 122.734 206.673 133.695 198.591Z" fill="#3F8DE0"/>
<path d="M121.217 193.597C109.225 194.085 93.668 181.244 86.6996 164.989C79.5692 148.733 83.6206 135.242 95.6127 134.754C98.2055 134.592 100.798 135.079 103.553 136.217C113.763 139.956 124.621 150.522 130.13 163.363C132.237 168.402 133.372 173.116 133.534 177.18C134.02 186.608 129.482 193.272 121.217 193.597Z" fill="#E6E6E6"/>
<path d="M133.696 177.18C123.81 176.367 111.818 166.126 106.146 153.122C103.391 146.62 102.581 140.769 103.553 136.217C113.763 139.956 124.621 150.522 130.13 163.363C132.237 168.24 133.372 172.953 133.696 177.18Z" fill="#D9D9D9"/>
</svg>
