<svg id="a5e41641-253a-4d07-9648-f1ab5b1a0370" data-name="Layer 1" xmlns="http://www.w3.org/2000/svg" width="894.13386" height="586.58369" viewBox="0 0 894.13386 586.58369"><title>public_discussion</title><ellipse cx="447.06693" cy="558.52231" rx="447.06693" ry="28.06139" fill="#e6e6e6"/><path d="M836.232,156.70815a3.18216,3.18216,0,0,0-3.17882,3.17882V284.49219A3.18216,3.18216,0,0,0,836.232,287.671H981.77334a3.18216,3.18216,0,0,0,3.17881-3.17882V159.887a3.18216,3.18216,0,0,0-3.17881-3.17882Z" transform="translate(-152.93307 -156.70815)" fill="#e6e6e6"/><path d="M856.41687,231.70873a1.39761,1.39761,0,0,0,0,2.739H962.89726a1.39761,1.39761,0,0,0,0-2.739Z" transform="translate(-152.93307 -156.70815)" fill="#fff"/><path d="M855.10809,247.98221a1.39761,1.39761,0,0,0,0,2.739H961.58848a1.39761,1.39761,0,0,0,0-2.739Z" transform="translate(-152.93307 -156.70815)" fill="#fff"/><path d="M856.41687,264.2557a1.39761,1.39761,0,0,0,0,2.739H962.89726a1.39761,1.39761,0,0,0,0-2.739Z" transform="translate(-152.93307 -156.70815)" fill="#fff"/><path d="M856.41687,177.38442a1.39808,1.39808,0,0,0,0,2.7398H962.89726a1.39808,1.39808,0,0,0,0-2.7398Z" transform="translate(-152.93307 -156.70815)" fill="#fff"/><path d="M855.10809,193.65791a1.39807,1.39807,0,0,0,0,2.73979H961.58848a1.39807,1.39807,0,0,0,0-2.73979Z" transform="translate(-152.93307 -156.70815)" fill="#fff"/><path d="M856.41687,209.9314a1.39807,1.39807,0,0,0,0,2.73979H962.89726a1.39807,1.39807,0,0,0,0-2.73979Z" transform="translate(-152.93307 -156.70815)" fill="#fff"/><path d="M771.17882,207.66232A3.18216,3.18216,0,0,0,768,210.84113V335.44635a3.18216,3.18216,0,0,0,3.17882,3.17882H916.72014a3.18216,3.18216,0,0,0,3.17881-3.17882V210.84113a3.18216,3.18216,0,0,0-3.17881-3.17881Z" transform="translate(-152.93307 -156.70815)" fill="#4338ca"/><path d="M791.36367,282.66289a1.39761,1.39761,0,0,0,0,2.739H897.84406a1.39761,1.39761,0,0,0,0-2.739Z" transform="translate(-152.93307 -156.70815)" fill="#fff"/><path d="M790.0549,298.93638a1.39761,1.39761,0,0,0,0,2.739H896.53528a1.39761,1.39761,0,0,0,0-2.739Z" transform="translate(-152.93307 -156.70815)" fill="#fff"/><path d="M791.36367,315.20986a1.39761,1.39761,0,0,0,0,2.739H897.84406a1.39761,1.39761,0,0,0,0-2.739Z" transform="translate(-152.93307 -156.70815)" fill="#fff"/><path d="M791.36367,228.33859a1.39807,1.39807,0,0,0,0,2.73979H897.84406a1.39807,1.39807,0,0,0,0-2.73979Z" transform="translate(-152.93307 -156.70815)" fill="#fff"/><path d="M790.0549,244.61207a1.39807,1.39807,0,0,0,0,2.73979H896.53528a1.39807,1.39807,0,0,0,0-2.73979Z" transform="translate(-152.93307 -156.70815)" fill="#fff"/><path d="M791.36367,260.88556a1.39807,1.39807,0,0,0,0,2.73979H897.84406a1.39807,1.39807,0,0,0,0-2.73979Z" transform="translate(-152.93307 -156.70815)" fill="#fff"/><polygon points="823.848 515.784 824.611 530.278 840.63 528.752 839.105 514.259 823.848 515.784" fill="#fbbebe"/><polygon points="762.058 499.002 762.821 513.496 778.841 511.97 777.315 497.476 762.058 499.002" fill="#fbbebe"/><path d="M987.84212,475.29963l-57.97546,9.91685L926.05249,590.4877l-15.2567,67.12948,24.41072,10.67968,23.64788-66.36663,8.39119-58.73829,6.10268,58.73829.76283,73.995,37.37891-2.2885L1002.55345,528.737a134.80677,134.80677,0,0,0-14.71132-53.43732Z" transform="translate(-152.93307 -156.70815)" fill="#2f2e41"/><path d="M979.06952,681.64648s-5.33985-6.10268-5.33985-3.81418-3.05134,24.41072-3.05134,24.41072,20.59655,6.10268,20.59655,9.91685,29.75056,9.91686,28.98772,2.28851-26.69922-36.61608-26.69922-36.61608S982.88369,676.30663,979.06952,681.64648Z" transform="translate(-152.93307 -156.70815)" fill="#2f2e41"/><path d="M918.20815,664.9563s-1.62605-7.94434-2.75708-5.95486-14.71691,19.71311-14.71691,19.71311,14.88927,15.48451,13.00423,18.80031,20.96215,23.32441,24.06908,16.31579-5.11423-45.027-5.11423-45.027S924.163,662.19922,918.20815,664.9563Z" transform="translate(-152.93307 -156.70815)" fill="#2f2e41"/><polygon points="764.106 234.499 806.338 238.537 820.415 200.175 779.985 190.435 764.106 234.499" fill="#2f2e41"/><circle cx="798.67439" cy="205.31049" r="21.35938" fill="#fbbebe"/><path d="M939.4021,374.98683s0,14.49387-11.44252,20.59655,27.46205,12.96819,27.46205,12.96819l3.81418-12.96819s-11.44252-5.33985-1.52567-17.54521Z" transform="translate(-152.93307 -156.70815)" fill="#fbbebe"/><path d="M957.71014,391.7692s-13.97113,8.65367-25.675.89408l-4.83838-.89408-14.49386,3.05134-6.86552,25.93639,25.93639,64.841s45.00726,7.62835,54.16128-9.154l-5.33984-68.65514-14.49387-17.54521Z" transform="translate(-152.93307 -156.70815)" fill="#575a89"/><polygon points="811.643 235.824 836.816 200.733 834.528 196.919 801.726 180.137 801.726 169.457 852.836 183.188 856.294 188.668 826.136 254.132 811.643 235.824" fill="#575a89"/><polygon points="761.295 238.875 759.77 238.112 721.628 236.587 750.616 211.413 741.462 199.971 697.98 232.773 697.98 240.401 759.77 266.337 761.295 238.875" fill="#575a89"/><path d="M894.01342,360.11155l5.33985-3.05134s11.44252-15.2567,16.01953-9.154-10.67969,17.54521-10.67969,17.54521l-8.39118,3.05134Z" transform="translate(-152.93307 -156.70815)" fill="#fbbebe"/><path d="M956.9473,328.4539l-8.39118-4.577s-25.17355,2.28851-22.12221,7.62835,20.59654.76284,20.59654.76284l9.91685,3.05134Z" transform="translate(-152.93307 -156.70815)" fill="#fbbebe"/><path d="M935.21023,341.40346s-9.80475,3.26825-10.30262,16.1753a22.89341,22.89341,0,0,0,.68058,6.12889c.55208,2.33976.907,7.37421-3.3716,13.95318a138.11944,138.11944,0,0,0-7.8392,13.48452l-.03068.06135,10.76827,1.346,2.28969-17.84918a88.88225,88.88225,0,0,1,7.058-25.05771l.07451-.16618s4.71112,8.74922,14.13335,8.74922l-3.36508-3.36508s14.80637,6.05715,20.1905,6.05715c0,0,4.0381,2.69206,0,6.73016s-12.1143,13.46034-7.40318,20.86352.673,9.42223.673,9.42223l7.40319-4.0381,3.36508-2.019v2.69207l17.49843-2.019s4.71112-.673-5.38413-12.1143c0,0-2.66582-4.443-1.4995-8.27508a19.32915,19.32915,0,0,0,.73475-9.03963C978.622,350.50685,969.74876,325.423,935.21023,341.40346Z" transform="translate(-152.93307 -156.70815)" fill="#2f2e41"/><path d="M321.29019,353.86362a1.99183,1.99183,0,0,0-1.98974,1.98974V507.86982a1.99159,1.99159,0,0,0,1.98974,1.98975h347.0114a1.99159,1.99159,0,0,0,1.98975-1.98975V355.85336a1.99184,1.99184,0,0,0-1.98975-1.98974Z" transform="translate(-152.93307 -156.70815)" fill="#e6e6e6"/><path d="M621.34363,383.85435H368.24816a2.3877,2.3877,0,1,1,0-4.77539H621.34363a2.3877,2.3877,0,0,1,0,4.77539Z" transform="translate(-152.93307 -156.70815)" fill="#fff"/><path d="M621.34363,402.95589H368.24816a2.38769,2.38769,0,1,1,0-4.77538H621.34363a2.38769,2.38769,0,1,1,0,4.77538Z" transform="translate(-152.93307 -156.70815)" fill="#fff"/><path d="M621.34363,422.05744H368.24816a2.3877,2.3877,0,1,1,0-4.77539H621.34363a2.3877,2.3877,0,0,1,0,4.77539Z" transform="translate(-152.93307 -156.70815)" fill="#fff"/><path d="M621.34363,441.01441H368.24816a2.38769,2.38769,0,1,1,0-4.77538H621.34363a2.38769,2.38769,0,1,1,0,4.77538Z" transform="translate(-152.93307 -156.70815)" fill="#fff"/><path d="M621.34363,460.116H368.24816a2.3877,2.3877,0,1,1,0-4.77539H621.34363a2.38769,2.38769,0,0,1,0,4.77539Z" transform="translate(-152.93307 -156.70815)" fill="#fff"/><path d="M557.10017,476.0105a.68249.68249,0,0,0-.68178.68177v18.074a.68249.68249,0,0,0,.68178.68177H620.3233a.68249.68249,0,0,0,.68177-.68177v-18.074a.68249.68249,0,0,0-.68177-.68177Z" transform="translate(-152.93307 -156.70815)" fill="#fff"/><path d="M210.77727,509.513s-5.22,62.76447-6.34076,76.21377a95.64717,95.64717,0,0,1-5.60387,24.65705,23.18546,23.18546,0,0,0-2.24155,8.9662v57.15952s-4.4831,0-3.36233,4.4831,2.24155,12.32852,2.24155,12.32852h16.81162s-1.12077-3.36233,2.24155-4.4831,0-10.087,0-10.087l17.9324-67.2465,26.8986-56.03874s15.69085,50.43487,19.05317,56.03874c0,0,12.32853,62.7634,14.57008,68.36727s3.36232,5.60388,2.24155,7.84543-1.12078,4.48309,0,5.60387,22.41549,0,22.41549,0l-5.60387-79.575-10.087-95.26586L250.38828,502.7894Z" transform="translate(-152.93307 -156.70815)" fill="#2f2e41"/><path d="M207.79884,684.35493s-5.60388-20.17395-14.57008-4.4831-8.9662,21.29472-8.9662,21.29472-14.57007,21.29473,5.60388,19.05318,15.69085-12.32853,15.69085-12.32853,7.84542-4.4831,7.84542-7.84542S207.79884,684.35493,207.79884,684.35493Z" transform="translate(-152.93307 -156.70815)" fill="#2f2e41"/><path d="M298.5816,682.11338s5.60387-20.17395,14.57007-4.4831,8.9662,21.29472,8.9662,21.29472,14.57008,21.29473-5.60387,19.05318-15.69085-12.32853-15.69085-12.32853-7.84542-4.4831-7.84542-7.84542S298.5816,682.11338,298.5816,682.11338Z" transform="translate(-152.93307 -156.70815)" fill="#2f2e41"/><path d="M245.90518,358.20944s2.24155,14.57008-4.4831,17.9324,14.57007,15.69085,20.17395,15.69085,15.69085-11.20775,15.69085-11.20775-5.60388-16.81162-4.4831-20.17395Z" transform="translate(-152.93307 -156.70815)" fill="#ffb9b9"/><circle cx="105.30063" cy="189.17277" r="23.53627" fill="#ffb9b9"/><path d="M304.18547,394.07424,276.167,377.09876s-15.94172,18.09625-33.18876-2.07769l-29.57556,7.84542,4.4831,76.21269s-6.72465,30.26092-4.4831,35.8648-5.60387,7.84542-3.36232,8.9662,0,8.9662,0,8.9662,43.71022,22.41549,91.90353,5.60387l-4.4831-14.57007a11.76068,11.76068,0,0,0-2.24154-11.20775s4.48309-6.72465-1.12078-12.32853c0,0,2.24155-10.087-3.36232-14.57007L289.6154,450.113l3.36233-7.84542Z" transform="translate(-152.93307 -156.70815)" fill="#cfcce0"/><path d="M246.18852,334.95237s-2.806,6.07252,8.418,3.64351c0,0,4.209,2.429,4.209-1.2145,0,0,5.612,6.07252,7.015,2.429s4.209,1.2145,4.209,1.2145l2.806-6.07252,2.806,3.64351h9.821s2.806-24.29007-30.866-21.86106-17.10715,40.91424-17.10715,40.91424.27115-6.90814,3.07715-3.26463S246.18852,334.95237,246.18852,334.95237Z" transform="translate(-152.93307 -156.70815)" fill="#2f2e41"/><path d="M314.27245,438.90523l1.12077,23.53628s4.4831,43.71022-4.4831,62.76339v10.087s-2.24155,25.77782-13.4493,24.65705,3.36233-36.98557,3.36233-36.98557l-2.24155-49.31409-2.24155-28.01938Z" transform="translate(-152.93307 -156.70815)" fill="#ffb9b9"/><path d="M291.857,395.195l11.18029-1.81645a54.58562,54.58562,0,0,1,15.71831,28.71505c3.36232,17.9324,4.4831,21.29472,4.4831,21.29472l-26.8986,6.72465L281.77,422.09361Z" transform="translate(-152.93307 -156.70815)" fill="#cfcce0"/><path d="M244.928,401.83472a1.99184,1.99184,0,0,0-1.98975,1.98974V555.84093a1.99159,1.99159,0,0,0,1.98975,1.98974h347.0114a1.99158,1.99158,0,0,0,1.98974-1.98974V403.82446a1.99183,1.99183,0,0,0-1.98974-1.98974Z" transform="translate(-152.93307 -156.70815)" fill="#4338ca"/><path d="M544.98146,431.82545H291.886a2.3877,2.3877,0,0,1,0-4.77539H544.98146a2.38769,2.38769,0,1,1,0,4.77539Z" transform="translate(-152.93307 -156.70815)" fill="#fff"/><path d="M544.98146,450.927H291.886a2.3877,2.3877,0,0,1,0-4.77539H544.98146a2.38769,2.38769,0,1,1,0,4.77539Z" transform="translate(-152.93307 -156.70815)" fill="#fff"/><path d="M544.98146,470.02854H291.886a2.3877,2.3877,0,0,1,0-4.77539H544.98146a2.3877,2.3877,0,1,1,0,4.77539Z" transform="translate(-152.93307 -156.70815)" fill="#fff"/><path d="M544.98146,488.98552H291.886a2.3877,2.3877,0,0,1,0-4.77539H544.98146a2.3877,2.3877,0,1,1,0,4.77539Z" transform="translate(-152.93307 -156.70815)" fill="#fff"/><path d="M544.98146,508.08706H291.886a2.38769,2.38769,0,1,1,0-4.77538H544.98146a2.38769,2.38769,0,1,1,0,4.77538Z" transform="translate(-152.93307 -156.70815)" fill="#fff"/><path d="M480.738,523.9816a.68249.68249,0,0,0-.68177.68177v18.074a.68249.68249,0,0,0,.68177.68177h63.22313a.68249.68249,0,0,0,.68177-.68177v-18.074a.68249.68249,0,0,0-.68177-.68177Z" transform="translate(-152.93307 -156.70815)" fill="#fff"/><path d="M196.59109,425.45594s-10.087,42.58944,2.24155,42.58944,41.46867-48.19332,41.46867-48.19332,30.26092-15.69085,17.93239-21.29472-28.01937,8.9662-28.01937,8.9662l-18.105,25.13638-.94817-12.80786Z" transform="translate(-152.93307 -156.70815)" fill="#ffb9b9"/><path d="M220.12736,389.59114l-6.72465-6.72465s-13.4493,7.84542-14.57007,15.69085-6.72465,32.50247-6.72465,32.50247l20.73433,1.68116,6.72465-10.087Z" transform="translate(-152.93307 -156.70815)" fill="#cfcce0"/></svg>